<?xml version="1.0" encoding="utf-8" ?>
<svg baseProfile="full" height="256px" version="1.1" width="256px" xmlns="http://www.w3.org/2000/svg" xmlns:ev="http://www.w3.org/2001/xml-events" xmlns:xlink="http://www.w3.org/1999/xlink"><defs /><polygon fill="black" points="150,70 149,71 149,73 148,74 148,76 147,77 147,79 146,80 146,82 145,83 145,85 144,86 144,88 143,89 143,91 142,92 142,95 141,96 141,98 140,99 140,101 139,102 139,104 138,105 138,107 137,108 137,110 136,111 136,113 135,114 135,116 134,117 134,119 133,120 133,122 132,123 132,133 133,134 133,138 134,139 134,142 135,143 135,147 136,148 136,152 137,153 137,156 138,157 138,160 139,161 139,166 140,167 140,170 141,171 141,174 142,175 142,180 143,181 143,184 144,185 144,188 145,189 145,193 146,194 146,198 147,199 147,202 148,203 148,207 149,208 149,212 150,213 150,216 151,217 151,220 152,221 152,225 153,226 154,226 159,221 160,221 163,218 164,218 169,213 170,213 173,210 174,210 178,206 179,206 180,205 180,204 181,203 180,202 180,198 179,197 179,194 178,193 178,189 177,188 177,184 176,183 176,181 175,180 175,176 174,175 174,172 173,171 173,168 172,167 172,163 171,162 171,158 170,157 170,154 169,153 169,150 168,149 168,145 167,144 167,141 166,140 166,138 165,137 165,132 164,131 164,128 163,127 163,124 162,123 162,120 161,119 161,115 160,114 160,110 159,109 159,106 158,105 158,101 157,100 157,97 156,96 156,93 155,92 155,89 154,88 154,84 153,83 153,80 152,79 152,76 151,75 151,71" /><polygon fill="black" points="159,42 159,43 158,44 158,46 157,47 157,49 156,50 156,52 155,53 155,60 156,61 156,64 157,65 157,68 158,69 158,72 159,73 159,77 160,78 160,82 161,83 161,85 162,86 162,90 163,91 163,95 164,96 164,99 165,100 165,103 166,104 166,108 167,109 169,109 170,110 228,110 229,109 229,42" /><polygon fill="black" points="115,42 114,43 114,44 113,45 113,47 112,48 112,50 111,51 111,53 110,54 110,55 109,56 109,59 108,60 108,61 107,62 107,64 106,65 106,67 105,68 105,70 104,71 104,73 103,74 103,76 102,77 102,79 101,80 101,82 100,83 100,85 99,86 99,88 98,89 98,91 97,92 97,93 96,94 96,97 95,98 95,100 94,101 94,102 93,103 93,105 92,106 92,108 91,109 91,112 90,113 90,114 89,115 89,117 88,118 88,120 87,121 87,123 86,124 86,126 85,127 85,129 84,130 84,132 83,133 83,135 82,136 82,138 81,139 81,141 80,142 80,143 79,144 79,146 78,147 78,149 77,150 77,152 76,153 76,155 75,156 75,158 74,159 74,161 73,162 73,164 72,165 72,167 71,168 71,170 70,171 70,172 69,173 69,175 68,176 68,179 67,180 67,181 66,182 66,184 65,185 65,187 64,188 64,190 63,191 63,194 64,195 64,196 68,200 68,201 73,206 73,207 74,207 75,208 75,209 80,214 80,215 86,221 86,222 87,223 89,223 90,222 90,220 91,219 91,217 92,216 92,214 93,213 93,211 94,210 94,208 95,207 95,205 96,204 96,202 97,201 97,199 98,198 98,196 99,195 99,193 100,192 100,190 101,189 101,187 102,186 102,184 103,183 103,181 104,180 104,178 105,177 105,175 106,174 106,173 107,172 107,170 108,169 108,167 109,166 109,164 110,163 110,161 111,160 111,158 112,157 112,155 113,154 113,152 114,151 114,149 115,148 115,146 116,145 116,144 117,143 117,141 118,140 118,138 119,137 119,135 120,134 120,132 121,131 121,129 122,128 122,126 123,125 123,123 124,122 124,120 125,119 125,117 126,116 126,114 127,113 127,111 128,110 128,108 129,107 129,106 130,105 130,103 131,102 131,100 132,99 132,97 133,96 133,94 134,93 134,91 135,90 135,88 136,87 136,85 137,84 137,82 138,81 138,79 139,78 139,77 140,76 140,74 141,73 141,70 142,69 142,67 143,66 143,65 144,64 144,62 145,61 145,59 146,58 146,56 147,55 147,53 148,52 148,50 149,49 149,47 150,46 150,42" /><polygon fill="black" points="30,42 30,43 29,44 29,45 30,46 29,47 29,104 30,105 30,109 31,110 83,110 84,109 84,106 85,105 85,103 86,102 86,101 87,100 87,98 88,97 88,95 89,94 89,92 90,91 90,89 91,88 91,86 92,85 92,83 93,82 93,80 94,79 94,77 95,76 95,74 96,73 96,72 97,71 97,68 98,67 98,65 99,64 99,63 100,62 100,60 101,59 101,57 102,56 102,54 103,53 103,51 104,50 104,48 105,47 105,45 106,44 106,43 105,42" /></svg>